<?xml version="1.0" encoding="utf-8"?>
<!-- Svg Vector Icons : http://www.onlinewebfonts.com/icon -->
<!DOCTYPE svg PUBLIC "-//W3C//DTD SVG 1.1//EN" "http://www.w3.org/Graphics/SVG/1.1/DTD/svg11.dtd">
<svg version="1.1" xmlns="http://www.w3.org/2000/svg" xmlns:xlink="http://www.w3.org/1999/xlink" x="0px" y="0px" viewBox="0 0 256 256" enable-background="new 0 0 256 256" xml:space="preserve">
<metadata> Svg Vector Icons : http://www.onlinewebfonts.com/icon </metadata>
<g><g><path fill="#000000" d="M61.7,59.3l-30.1-8.4L10,127.8l30.1,8.4l3.3-12.1l16.9,13.6l39.6-31.1l20.5-6.6l26.8,15l8.4-7l-19.8-31.2l-38.5-2.2l-29.7,4.8l-2.9-1.8L54.3,97.1L51,95.6l7-23.1L61.7,59.3L61.7,59.3z M196.5,54.9l49.5,61.6l-23.8,19l-6.2-7.7l-16.5,19.4l-16.9-2.9c-11.7,5.1-26.4,19.4-29.7,31.9l9.2,15.8l-2.2,2.6c-3.7,4-7.3,7.7-12.1,10.6c-4-2.6-8.4-5.1-12.4-7.7c1.1-7,6.2-15,7.3-17.6l-2.2-0.7c-4,5.1-16.1,16.9-22,20.5c-4-2.6-8.4-5.1-12.5-7.7c0.7-4.8,11.7-17.2,13.9-21.3l-1.8-1.8c-9.2,8.8-19,19-25.6,20.9l-13.9-12.1c7.3-10.6,21.3-22,30.1-29.7l-1.1-4c-8.8,7.3-24.2,19.4-33,26.8c-7.7-2.2-12.1-6.6-13.2-13.6C76,142.4,95,126.3,114.1,112l10.3-3.3l27.9,15.7l15.4-12.8l-15.7-23.8c5.1-2.6,10.3-4.8,14.7-6.6l25.6,24.2l3.3-2.6l-19-24.2l0,0l-4-4.8L196.5,54.9L196.5,54.9z M208.3,156l-18.7-3.3l-4.8,5.5l15.7,10.3C203.5,164.8,206,160.4,208.3,156L208.3,156z M174.6,196.3c3.7-3.3,7.3-6.2,11-9.9l-15-11l-5.5,4L174.6,196.3L174.6,196.3z M188.8,183.1c2.9-3.3,5.9-6.6,8.4-9.9l-20.5-13.2l-6.6,7.3L188.8,183.1z"/></g></g>
</svg>