<?xml version="1.0" encoding="UTF-8"?>
<svg version="1.1" xmlns="http://www.w3.org/2000/svg" width="980" height="980">
<path d="M0 0 C3.66434951 1.71025466 5.9345589 3.75997924 8.75 6.6875 C11.49550737 9.53485684 14.2644769 12.24611144 17.28575039 14.79366016 C23.91391588 20.57411058 30.03964138 26.88761492 36.25611877 33.10221863 C37.7072129 34.5492931 39.15851645 35.9961576 40.61001056 37.44283086 C44.58667665 41.40758392 48.56022745 45.37544622 52.53323042 49.34386957 C56.82245556 53.62711942 61.11449151 57.90755129 65.40608215 62.18843079 C75.75714058 72.51502302 86.10330161 82.8465143 96.44859377 93.17888233 C99.36929586 96.09591102 102.29016236 99.01277504 105.21106601 101.92960191 C123.34733264 120.04062153 141.48199763 138.15324328 159.61186314 156.27067089 C163.80607848 160.46196506 168.00031701 164.65323601 172.19458008 168.84448242 C172.71564269 169.36517412 173.2367053 169.88586583 173.77355769 170.42233607 C190.69468354 187.33128714 207.62518775 204.23080806 224.56103378 221.12501459 C241.9763803 238.49762056 259.38367624 255.87824973 276.7802862 273.26961924 C279.23434576 275.72293833 281.68849041 278.1761723 284.14268303 280.62935829 C284.62568112 281.11216577 285.10867921 281.59497324 285.6063136 282.09241124 C293.39147741 289.87405625 301.18500949 297.64726812 308.98159197 305.41747059 C316.80663521 313.21643436 324.62231128 321.02470646 332.42903388 328.8420138 C336.66153838 333.07972869 340.89807704 337.31320222 345.14547729 341.53599167 C349.0275542 345.39576019 352.89809207 349.26670948 356.75946712 353.14718536 C358.16397365 354.55451775 359.57278756 355.95756615 360.9861247 357.35603001 C362.89553018 359.24655196 364.78913209 361.15157025 366.67931461 363.06128216 C367.24117575 363.61029408 367.80303689 364.15930599 368.38192412 364.72495463 C371.97118997 368.39715256 371.97118997 368.39715256 372.09945154 371.08101511 C370.61724264 373.66806546 368.84179229 375.53170862 366.72946072 377.64247608 C365.80233664 378.57619 364.87521256 379.50990392 363.91999382 380.47191221 C362.87920524 381.50483213 361.83827758 382.53761193 360.79722595 383.57026672 C359.70010274 384.66941334 358.60363739 385.76921694 357.50777632 386.86962193 C354.48799225 389.89807768 351.45889314 392.91706553 348.4282285 395.93462741 C345.16362776 399.18835399 341.90766408 402.45070314 338.65063477 405.71200562 C332.26475888 412.10352379 325.87092087 418.48701999 319.47443473 424.86791769 C312.02579571 432.29903721 304.5852026 439.73819093 297.14499063 447.1777462 C283.86582591 460.45522147 270.57960501 473.72561329 257.28930664 486.99194336 C244.39585167 499.86216257 231.50693045 512.73689822 218.62329102 525.61694336 C217.83054915 526.40946246 217.03780727 527.20198157 216.22104292 528.0185164 C214.62402919 529.61508752 213.02701575 531.21165894 211.4300026 532.80823065 C210.64218293 533.59583076 209.85436325 534.38343087 209.04267025 535.19489765 C208.2568313 535.98052061 207.47099236 536.76614357 206.66134011 537.57557328 C194.38380731 549.8494013 182.10244749 562.11939952 169.82056386 574.38887364 C165.37080061 578.83420617 160.92153274 583.28003383 156.47260892 587.72620646 C149.41103345 594.78334202 142.34778404 601.83879334 135.28116357 608.8908774 C132.05269637 612.1127538 128.82498935 615.33538134 125.59942055 618.56015968 C122.6436022 621.51518751 119.68546981 624.46787849 116.72550649 627.41875424 C115.65792252 628.48384292 114.59115913 629.54975492 113.52532493 630.61659459 C108.38574211 635.7600874 103.22427678 640.82832515 97.68231732 645.54258174 C94.79536525 648.04359425 92.12242187 650.7545803 89.43554688 653.46679688 C88.83275406 654.07104996 88.22996124 654.67530304 87.60890198 655.29786682 C86.31525354 656.59528709 85.02276018 657.89385996 83.7313385 659.1934967 C81.68102427 661.25671313 79.62748134 663.31666812 77.57312012 665.37585449 C73.21258257 669.74775359 68.85599599 674.12357646 64.5 678.5 C59.44751674 683.57617701 54.39337658 688.65068129 49.3349762 693.72096252 C47.32340813 695.73895718 45.31490405 697.75996659 43.30651855 699.78112793 C37.86541221 705.24379635 32.44985335 710.65963015 26.56945801 715.65539551 C24.38331093 717.5283371 22.36182819 719.5423763 20.34375 721.59375 C19.54839844 722.39683594 18.75304687 723.19992187 17.93359375 724.02734375 C17.13050781 724.84332031 16.32742188 725.65929687 15.5 726.5 C10.39628517 731.68563641 5.28944676 736.76348892 -0.26660156 741.46704102 C-2.04024607 743.03559226 -3.63467766 744.7081426 -5.25 746.4375 C-9.14047921 749.68832835 -12.73353717 749.85390958 -17.6875 749.5625 C-23.32279563 748.60556301 -28.333925 746.43699254 -33.51367188 744.11328125 C-115.51892373 705.1674973 -115.51892373 705.1674973 -203 703 C-224.06223487 714.34425456 -235.55328259 744.04225936 -246 764 C-246.60215332 765.14791016 -247.20430664 766.29582031 -247.82470703 767.47851562 C-254.75036159 780.70708698 -261.52159308 794.00648272 -268.16479492 807.37902832 C-274.39626288 819.9215497 -280.81170625 832.32157613 -287.64160156 844.55224609 C-289.00605824 847.0109166 -290.34572472 849.48170209 -291.6796875 851.95703125 C-301.10065322 869.36006636 -312.81452461 884.18218549 -326.875 898.125 C-327.79152344 899.04925781 -328.70804687 899.97351563 -329.65234375 900.92578125 C-360.51741506 931.70403098 -400.26930446 954.19526533 -441 969 C-442.25901123 969.4635791 -442.25901123 969.4635791 -443.54345703 969.93652344 C-477.25054863 982.13998686 -521.53208244 986.64695712 -555 972 C-563.75880835 967.73191654 -571.71080288 962.48341853 -579 956 C-579.75796875 955.33613281 -580.5159375 954.67226563 -581.296875 953.98828125 C-595.96710422 940.30449848 -606.99939814 918.13310874 -608.10700989 898.06074524 C-608.1646239 895.82913209 -608.19053806 893.59951112 -608.203125 891.3671875 C-608.21018463 890.54179474 -608.21724426 889.71640198 -608.22451782 888.86599731 C-608.44808737 855.02916342 -608.44808737 855.02916342 -605 840 C-604.70996094 838.64358398 -604.70996094 838.64358398 -604.4140625 837.25976562 C-595.01246887 793.70485193 -573.51662383 754.68898972 -546 720 C-545.29617188 719.10152344 -544.59234375 718.20304688 -543.8671875 717.27734375 C-517.51814242 684.26811569 -485.54400282 665.36515393 -447 649 C-411.07694851 633.65891926 -377.4624555 616.66386553 -347 592 C-346.26910156 591.43667969 -345.53820312 590.87335937 -344.78515625 590.29296875 C-337.77709615 584.72639147 -333.47891471 577.87157384 -332 569 C-327.52196142 520.01614874 -349.69681603 468.49352973 -366.15649414 423.3190918 C-367.83396269 418.70714569 -369.49351408 414.0887654 -371.15405273 409.47070312 C-371.89660393 407.40626996 -372.64076168 405.34241353 -373.38696289 403.27929688 C-379.55128227 386.22452578 -379.55128227 386.22452578 -378 381 C-375.19647908 377.1579387 -371.95523248 373.8970687 -368.56884766 370.56933594 C-366.58864432 368.58851629 -364.7202348 366.52096794 -362.84741211 364.43920898 C-356.61654102 357.52644863 -350.03866649 350.96835872 -343.40600586 344.44287109 C-342.67776611 343.72309082 -341.94952637 343.00331055 -341.19921875 342.26171875 C-340.23761841 341.31752075 -340.23761841 341.31752075 -339.2565918 340.35424805 C-337.36428019 338.38004478 -335.58016931 336.36910576 -333.79756165 334.29756165 C-330.33812754 330.33513284 -326.71649583 326.58716428 -322.98242188 322.88476562 C-322.31964737 322.22345139 -321.65687286 321.56213715 -320.97401428 320.88078308 C-319.54890652 319.45945143 -318.12264582 318.03927499 -316.69532776 316.62016296 C-314.43049183 314.36820944 -312.1688985 312.11304304 -309.90808105 309.85705566 C-304.29510128 304.25737327 -298.67667041 298.66317057 -293.05841064 293.06878662 C-288.30067941 288.33085293 -283.54504678 283.59083125 -278.79212952 278.84806824 C-276.57469922 276.63707313 -274.35425586 274.42913559 -272.13366699 272.22131348 C-270.76148793 270.85277027 -269.38945093 269.48408459 -268.01757812 268.11523438 C-267.40854141 267.51136398 -266.7995047 266.90749359 -266.17201233 266.2853241 C-263.27159766 263.38526191 -260.4858417 260.43851896 -257.81989956 257.3207407 C-253.88447915 252.80521953 -249.70765895 248.56835768 -245.46742249 244.34043884 C-244.63404136 243.50549772 -243.80066023 242.6705566 -242.94202513 241.81031424 C-240.64916332 239.51417426 -238.35409971 237.22026293 -236.05804312 234.92731845 C-233.5742526 232.44580274 -231.09335653 229.96139603 -228.61207581 227.47737122 C-223.75900103 222.61986196 -218.90324144 217.76504528 -214.04649717 212.91120522 C-210.09752493 208.96449615 -206.14953565 205.0168063 -202.20223808 201.06842232 C-201.6393226 200.5053536 -201.07640712 199.94228489 -200.4964336 199.36215349 C-199.35269996 198.21810011 -198.20896855 197.07404449 -197.06523936 195.92998666 C-186.35347769 185.215377 -175.6386594 174.50382825 -164.92278468 163.79333235 C-155.7385343 154.61354938 -146.55690885 145.43114781 -137.37719727 136.24682617 C-126.70365807 125.56792919 -116.02849046 114.89066439 -105.35073847 104.21597964 C-104.21101612 103.07657582 -103.07129585 101.93716992 -101.93157768 100.79776192 C-101.3708898 100.23722831 -100.81020192 99.6766947 -100.23252349 99.09917523 C-96.29137722 95.15889049 -92.35138863 91.21745046 -88.41185188 87.27555656 C-83.60744606 82.46833917 -78.80124832 77.66292185 -73.99278123 72.85976665 C-71.54194102 70.41154515 -69.09188969 67.96254835 -66.64402008 65.51135635 C-63.98484373 62.84943998 -61.3225941 60.19063489 -58.65956116 57.53257751 C-57.51104733 56.38071761 -57.51104733 56.38071761 -56.33933121 55.2055878 C-52.25147089 51.13248759 -48.07575436 47.22669608 -43.69522232 43.46919298 C-41.44708453 41.52080649 -39.33628743 39.45621514 -37.23632812 37.34985352 C-36.39606079 36.50951065 -35.55579346 35.66916779 -34.69006348 34.80335999 C-33.81265503 33.92079025 -32.93524658 33.03822052 -32.03125 32.12890625 C-31.11033569 31.206577 -30.18942139 30.28424774 -29.24060059 29.33396912 C-26.81852446 26.90811523 -24.39946921 24.47927148 -21.9810791 22.04974365 C-19.50226163 19.56060884 -17.02053203 17.07438105 -14.5390625 14.58789062 C-9.68989076 9.72806542 -4.84391137 4.86506822 0 0 Z M-1.50716686 58.25827789 C-2.10092774 58.85258354 -2.69468863 59.44688919 -3.30644226 60.0592041 C-3.9890361 60.73760345 -4.67162994 61.41600281 -5.37490845 62.11495972 C-6.12348114 62.86915192 -6.87205383 63.62334412 -7.64331055 64.40039062 C-8.43215134 65.18733307 -9.22099213 65.97427551 -10.03373718 66.7850647 C-12.65631777 69.40392274 -15.27159567 72.02994663 -17.88671875 74.65625 C-19.70518658 76.47590965 -21.52402391 78.29520011 -23.34321594 80.11413574 C-27.16542781 83.9379154 -30.98436618 87.7649189 -34.80053711 91.59472656 C-39.19714756 96.00699098 -43.59888987 100.41407998 -48.00370187 104.81815577 C-52.2498474 109.06368767 -56.49305277 113.31214218 -60.73481178 117.5620575 C-62.53425497 119.36467313 -64.33429587 121.16669231 -66.13495445 122.96809387 C-68.66239394 125.4977165 -71.186504 128.03061537 -73.7097168 130.56445312 C-74.44816833 131.30245148 -75.18661987 132.04044983 -75.94744873 132.80081177 C-79.95153818 136.82941327 -83.78718628 140.94840542 -87.48249531 145.26274872 C-89.70455582 147.80658103 -92.08313984 150.14000714 -94.5 152.5 C-98.88538552 156.8330807 -103.04184223 161.2739779 -107 166 C-107.69222656 166.77988281 -108.38445312 167.55976563 -109.09765625 168.36328125 C-115.9191966 176.32380838 -118.70127233 183.72970667 -118.34375 194.26171875 C-117.39684406 201.80468541 -114.66092529 207.24207878 -108.68359375 211.94140625 C-105.01050602 214.25093473 -101.48392587 214.25887967 -97.25 214.375 C-96.05890625 214.42398438 -94.8678125 214.47296875 -93.640625 214.5234375 C-82.26687728 213.8785411 -70.70505629 207.75960075 -60.6875 202.8125 C-59.45323041 202.21186017 -58.21885211 201.61144369 -56.984375 201.01123047 C-47.76650698 196.49911635 -38.72859405 191.67252006 -29.69433594 186.80603027 C-12.8655818 177.74849821 3.97166188 169.26039472 23 166 C23.71800781 165.87109375 24.43601562 165.7421875 25.17578125 165.609375 C38.38532066 163.59750126 52.56238783 164.80135977 63.8828125 172.3359375 C73.92996416 180.23277626 77.10524791 190.71157158 79 203 C82.27177773 233.72818272 65.1552732 269.19055233 54 297.1875 C49.22371719 309.28225838 45.12556059 322.43045341 49 335.4375 C51.08267519 339.94347482 54.55663939 343.7989545 59 346 C64.98269987 346.5422943 70.73579995 345.71847288 76.5859375 344.5390625 C77.36836823 344.38843353 78.15079895 344.23780457 78.9569397 344.08261108 C81.4312213 343.60455025 83.90308234 343.1151216 86.375 342.625 C88.02328535 342.30390545 89.67172211 341.98358715 91.3203125 341.6640625 C92.12262299 341.50825714 92.92493347 341.35245178 93.7515564 341.19192505 C95.34236496 340.8830642 96.93320534 340.57436724 98.52407837 340.26583862 C101.7405688 339.64067727 104.95394499 339.00960931 108.16162109 338.34033203 C122.9655674 335.35810719 141.07267772 334.46268546 155 341 C155.96679688 341.43570312 156.93359375 341.87140625 157.9296875 342.3203125 C169.73388029 348.17442437 177.30526151 357.48571004 182.06640625 369.74609375 C188.30941736 389.56086813 184.32932031 410.59048067 179.984375 430.359375 C179.80314087 431.18492386 179.62190674 432.01047272 179.43518066 432.86103821 C178.51314999 437.03969156 177.57229802 441.2130758 176.60546875 445.3815918 C176.25253397 446.94057656 175.89966653 448.49957657 175.546875 450.05859375 C175.37621521 450.77033752 175.20555542 451.4820813 175.02972412 452.21539307 C174.08444345 456.44027565 173.79135555 459.81458122 175 464 C179.46452022 467.26672212 183.6673888 467.31692361 189 467 C220.68979602 462.0037036 243.66911915 442.69590336 265.48828125 420.70703125 C266.92657551 419.26499612 268.36531992 417.82340984 269.80448914 416.38224792 C273.54885999 412.63032506 277.2871798 408.87243153 281.02416992 405.11315918 C284.85549761 401.261189 288.69265809 397.41503833 292.52929688 393.56835938 C300.02517438 386.05118119 307.51465718 378.52766732 315 371 C313.55539022 367.69265623 311.76073153 365.51103784 309.21549034 362.96660137 C308.42222764 362.16873988 307.62896495 361.37087839 306.81166399 360.54883927 C305.93581041 359.67812926 305.05995684 358.80741926 304.15756226 357.9103241 C302.76689086 356.51603108 302.76689086 356.51603108 301.3481251 355.09357053 C298.77302002 352.51204544 296.19170421 349.93680947 293.60933948 347.36254919 C290.82577156 344.58555395 288.04796607 341.80280511 285.2694397 339.02076721 C279.8234863 333.56976826 274.37220008 328.12413245 268.91910307 322.68028089 C262.56713928 316.33869944 256.22040421 309.99189584 249.87387307 303.64487831 C238.54551494 292.3160193 227.21232997 280.99200122 215.87646484 269.6706543 C204.8826107 258.69087302 193.89224992 247.70761079 182.90576172 236.72045898 C182.2297754 236.04443271 181.55378908 235.36840643 180.85731833 234.67189451 C180.18249126 233.99702709 179.5076642 233.32215967 178.81238782 232.62684172 C166.30232448 220.11608763 153.78896934 207.60863061 141.27408855 195.10269567 C136.85176857 190.68338744 132.43042131 186.26310746 128.00938034 181.84251976 C122.61572245 176.44954563 117.22016739 171.05847755 111.82227223 165.66974445 C109.06972004 162.92179482 106.31794145 160.1730829 103.56832123 157.42219925 C101.04739328 154.90016919 98.52414255 152.38048683 95.99907501 149.86260156 C94.66133683 148.52751124 93.32601209 147.19000403 91.99079645 145.85239094 C87.71408975 141.59273191 83.37777591 137.47462149 78.78303766 133.55855918 C75.4453608 130.64108468 72.35624289 127.46940664 69.23876953 124.32055664 C68.1445594 123.22174667 68.1445594 123.22174667 67.02824402 122.10073853 C65.45959437 120.52498535 63.89207625 118.94810507 62.32559586 117.37019539 C59.84880166 114.87590516 57.36838819 112.38526677 54.88693237 109.89561462 C47.83765012 102.82195613 40.79415232 95.74255776 33.75488281 88.65893555 C29.43809144 84.31544959 25.11651288 79.97677549 20.79189682 75.64108086 C19.14490285 73.98786278 17.49981078 72.33274777 15.85663223 70.67573738 C13.57052566 68.37053648 11.27843781 66.07144876 8.98486328 63.77368164 C8.3033168 63.08337357 7.62177032 62.39306549 6.91957092 61.68183899 C5.98619652 60.75042084 5.98619652 60.75042084 5.03396606 59.80018616 C4.22270358 58.98421007 4.22270358 58.98421007 3.39505196 58.15174961 C1.3639438 56.47487441 0.49486036 56.58685938 -1.50716686 58.25827789 Z M-19.40234375 226.44140625 C-26.24426114 230.14603535 -33.13682179 233.71377475 -40.14160156 237.09960938 C-41.45070755 237.73386882 -42.75711398 238.37371519 -44.06152344 239.01757812 C-68.82903108 251.23816572 -95.40960135 257.99113901 -122.75 249.4375 C-138.180987 243.24676227 -147.50243017 229.01806275 -155 215 C-158.12777975 214.67717666 -158.12777975 214.67717666 -160.33488464 216.97412109 C-161.25199722 217.89789551 -162.1691098 218.82166992 -163.11401367 219.7734375 C-163.8754493 220.534216 -163.8754493 220.534216 -164.65226746 221.31036377 C-166.33137445 222.99156378 -167.99960185 224.68314686 -169.66796875 226.375 C-170.82887931 227.54150468 -171.99045321 228.70734954 -173.15266418 229.87255859 C-176.21218539 232.94354302 -179.26259183 236.02342953 -182.31121826 239.10522461 C-185.42275106 242.24742637 -188.54277667 245.38116964 -191.66210938 248.515625 C-197.78310738 254.66881322 -203.89450687 260.83142699 -210 267 C-208.42160859 270.86030852 -205.81148865 273.46562463 -202.89690208 276.34919357 C-202.36951018 276.87889317 -201.84211828 277.40859276 -201.2987448 277.95434386 C-199.52146192 279.73694154 -197.73710552 281.5122866 -195.95272827 283.28778076 C-194.66776186 284.57361894 -193.38323487 285.85989637 -192.0991112 287.14657617 C-188.56223013 290.68794052 -185.01912406 294.22301965 -181.47499895 297.75713229 C-177.65680108 301.56671209 -173.8443653 305.38205044 -170.03123474 309.19670105 C-163.4216259 315.80735978 -156.80835822 322.41433996 -150.19260788 329.01885223 C-140.62728941 338.56793281 -131.06748299 348.12251587 -121.50902303 357.6784611 C-106.0017856 373.18131874 -90.49008493 388.67970261 -74.97558594 404.17529297 C-59.90260792 419.22991954 -44.83172839 434.28663897 -29.76367188 449.34619141 C-28.8352417 450.27409614 -27.90681152 451.20200087 -26.95024709 452.15802392 C-22.29270783 456.81295316 -17.63520986 461.4679237 -12.97773242 466.12291479 C25.67511149 504.75501735 64.33519565 543.37986826 103 582 C108.34173106 577.49193842 108.34173106 577.49193842 113.42332458 572.69692993 C114.00510971 572.11651947 114.58689484 571.53610901 115.18630981 570.93811035 C115.7969931 570.32383179 116.40767639 569.70955322 117.03686523 569.07666016 C118.03326271 568.08048172 118.03326271 568.08048172 119.04978943 567.06417847 C121.22177269 564.89150441 123.39020279 562.71532128 125.55859375 560.5390625 C127.07294682 559.02284228 128.58752237 557.50684424 130.10231018 555.99105835 C134.07138372 552.01818297 138.03744381 548.04231269 142.00286865 544.0657959 C146.05672562 540.00167446 150.11344637 535.94041378 154.16992188 531.87890625 C162.11607526 523.92205673 170.05904577 515.96203806 178 508 C174.92199182 505.94799455 172.60349833 505.22860318 169.0625 504.25 C156.36182362 500.41716782 145.2381302 495.18028703 138.5625 483.3125 C130.48814767 467.75782126 135.66362755 448.42623299 139.27685547 432.25390625 C146.29669072 407.123351 146.29669072 407.123351 144 382 C141.79185056 379.40542441 140.04391181 377.5219559 137 376 C125.38386373 375.17651945 114.83306906 376.8654823 103.5625 379.4375 C89.98281365 382.45174854 77.46056397 384.19319201 63.5 384.25 C61.59927734 384.2809375 61.59927734 384.2809375 59.66015625 384.3125 C46.74892446 384.36624082 37.91870156 381.27510142 28.3125 372.5625 C27.549375 371.716875 26.78625 370.87125 26 370 C25.55398438 369.55785156 25.10796875 369.11570312 24.6484375 368.66015625 C13.52154992 356.96799898 8.04185173 340.50802885 7.5 324.625 C8.30517284 300.49497653 19.16343816 277.11146206 27.55136108 254.83029175 C31.61067351 244.02688732 35.4107558 233.26596679 38 222 C38.19722656 221.14535156 38.39445313 220.29070312 38.59765625 219.41015625 C39.05306461 216.68212754 39.16863789 214.07768471 39.1875 211.3125 C39.20167969 210.35988281 39.21585938 209.40726563 39.23046875 208.42578125 C39.24258197 205.81787718 39.24258197 205.81787718 37 204 C17.74126039 202.43052716 -3.21384463 217.66772376 -19.40234375 226.44140625 Z M-245.86016846 302.45903015 C-246.63983978 303.22590652 -247.41951111 303.9927829 -248.22280884 304.78289795 C-249.073862 305.63531067 -249.92491516 306.48772339 -250.80175781 307.3659668 C-252.15081711 308.69991234 -252.15081711 308.69991234 -253.52713013 310.06080627 C-255.99699616 312.50412826 -258.45700745 314.95714833 -260.91458988 317.41281867 C-262.96506096 319.46044429 -265.0196073 321.50395798 -267.0739677 323.5476802 C-271.91923577 328.36850601 -276.75589559 333.19785622 -281.58789062 338.03198242 C-286.57700513 343.02290009 -291.58261268 347.99683864 -296.59624982 352.96311063 C-300.89656147 357.22423328 -305.18526572 361.49680421 -309.46506763 365.77852565 C-312.0229602 368.33718424 -314.58532551 370.8909382 -317.15940094 373.43332481 C-320.02844369 376.26800683 -322.87299213 379.12608952 -325.71582031 381.98706055 C-326.5749704 382.82935211 -327.43412048 383.67164368 -328.31930542 384.53945923 C-329.47189346 385.71092247 -329.47189346 385.71092247 -330.64776611 386.90605164 C-331.32323109 387.57988231 -331.99869606 388.25371298 -332.69462967 388.94796276 C-334.27280149 390.96620637 -334.27280149 390.96620637 -333.75634384 393.61840534 C-333.01959438 395.93830072 -332.2474829 398.20771386 -331.35546875 400.47265625 C-330.84415405 401.79293823 -330.84415405 401.79293823 -330.32250977 403.13989258 C-329.94795654 404.10435303 -329.57340332 405.06881348 -329.1875 406.0625 C-276.50500876 544.57323611 -276.50500876 544.57323611 -297.43359375 594.4140625 C-301.6754711 602.93850667 -307.36685696 609.31872095 -314 616 C-315.03833984 617.09441406 -315.03833984 617.09441406 -316.09765625 618.2109375 C-331.44040303 634.15227193 -350.68855594 646.47162536 -370 657 C-370.81903809 657.45133301 -371.63807617 657.90266602 -372.48193359 658.36767578 C-394.7081283 670.54682397 -418.01529799 680.63827436 -441.125 691 C-474.28775379 705.88398707 -499.82321715 723.8894623 -521 754 C-521.5681543 754.80421387 -522.13630859 755.60842773 -522.72167969 756.43701172 C-549.38881963 794.51086265 -576.70627408 846.36024361 -568.31640625 894.63671875 C-565.04272659 909.97758543 -557.80625693 922.97163615 -544.6875 931.875 C-522.59836528 944.85962276 -494.854639 942.1120095 -471 936 C-438.72566847 926.95228033 -408.79978876 912.07777435 -382 892 C-381.3910791 891.54802246 -380.7821582 891.09604492 -380.15478516 890.63037109 C-352.32232932 869.85274871 -333.9771436 845.57671051 -318 815 C-317.14269287 813.36780518 -317.14269287 813.36780518 -316.26806641 811.70263672 C-309.22514077 798.28351312 -302.36650305 784.77879819 -295.61328125 771.21191406 C-291.30688559 762.5754323 -286.88945768 754.00715044 -282.33496094 745.49902344 C-281.38630522 743.72315659 -280.44210517 741.94490639 -279.50097656 740.16503906 C-245.28801054 675.46568855 -245.28801054 675.46568855 -216 665 C-157.55573596 647.53977612 -88.51384728 676.85256791 -34.9375 699.46875 C-33.8959375 699.90832031 -32.854375 700.34789062 -31.78125 700.80078125 C-30.10395026 701.52399898 -28.43429937 702.26591914 -26.78125 703.04296875 C-23.56134621 704.60181906 -23.56134621 704.60181906 -20.06476212 704.79416752 C-17.42514595 703.77889442 -16.02210599 702.39104905 -14.02630615 700.3870697 C-13.24670532 699.61159286 -12.46710449 698.83611603 -11.66387939 698.03713989 C-10.81799255 697.18046722 -9.97210571 696.32379456 -9.10058594 695.44116211 C-7.75371704 694.09495033 -7.75371704 694.09495033 -6.37963867 692.72154236 C-3.91864583 690.26141059 -1.46701509 687.79213587 0.98305225 685.32112956 C3.54548867 682.73994509 6.11641774 680.16724831 8.6864624 677.59364319 C13.55143591 672.71934372 18.40871128 667.83744708 23.26327491 662.95278221 C28.7905923 657.39193798 34.32642608 651.83960533 39.86299562 646.28797519 C51.2515077 634.86810162 62.62926412 623.43757397 74 612 C69.05088959 606.03224533 63.70323905 600.56020391 58.21856689 595.08485413 C57.22877763 594.09319404 56.23920403 593.10131866 55.24982619 592.1092481 C52.54450933 589.39784122 49.83610407 586.68953824 47.12714982 583.9817661 C44.20107451 581.05589549 41.27786683 578.12716213 38.35426331 575.19882202 C32.6335288 569.46979791 26.91003426 563.74353898 21.18543276 558.0183791 C16.53528046 553.36775124 11.88591959 548.71633365 7.23711395 544.06435966 C-5.94068781 530.87775926 -19.12057613 517.69324947 -32.30315325 504.51142294 C-33.36811436 503.44652176 -33.36811436 503.44652176 -34.45458984 502.36010742 C-35.16542914 501.649309 -35.87626844 500.93851058 -36.60864833 500.20617282 C-48.15051634 488.664712 -59.68737758 477.11826066 -71.22199997 465.56955893 C-83.06322129 453.71399782 -94.90814259 441.86214466 -106.75696874 430.01418394 C-113.41038059 423.36110468 -120.06223016 416.70648021 -126.7101059 410.04786873 C-132.36450514 404.38439643 -138.02231183 398.72435641 -143.68465653 393.06882752 C-146.57551708 390.18124721 -149.46470746 387.29204447 -152.3496151 384.3985157 C-154.98638518 381.75394663 -157.62766013 379.11396859 -160.27272168 376.47769325 C-161.68997813 375.06272475 -163.10227558 373.64279469 -164.51443553 372.22273976 C-165.34724898 371.39452511 -166.18006242 370.56631045 -167.03811264 369.71299839 C-167.76012604 368.99076763 -168.48213943 368.26853686 -169.22603202 367.52442032 C-170.86298265 365.78275126 -170.86298265 365.78275126 -173 366 C-173 365.34 -173 364.68 -173 364 C-174.33721589 362.64855579 -174.33721589 362.64855579 -176.16479492 361.21069336 C-181.93142768 356.3020086 -187.17750108 350.90161919 -192.49550819 345.51852608 C-194.39668395 343.59511285 -196.30198501 341.67587588 -198.20854187 339.75779724 C-203.62292942 334.30999322 -209.03287922 328.85783778 -214.43286133 323.39575195 C-217.74895637 320.04210785 -221.07224238 316.695738 -224.40032005 313.35398674 C-225.66500426 312.08123761 -226.92690332 310.80571479 -228.1859684 309.52740669 C-229.93792583 307.74910338 -231.69884647 305.98016951 -233.4621582 304.21313477 C-233.98114685 303.68178925 -234.5001355 303.15044373 -235.03485107 302.60299683 C-239.48838402 298.17428842 -241.46670246 298.09819218 -245.86016846 302.45903015 Z " fill="#070707" transform="translate(608,0)"/>
<path d="M0 0 C7.45270531 6.25775678 13.49635776 13.59196385 15.625 23.25 C16.48526561 37.47963927 15.64072119 48.72154489 5.94140625 59.95703125 C-2.55680389 68.36925613 -12.4204387 71.86589013 -24.2890625 72.375 C-35.16781141 71.87338622 -44.41489036 67.27140801 -52.1796875 59.78125 C-60.27242543 50.45012157 -62.89504553 40.17895629 -62.6796875 28.03515625 C-61.87297576 18.01331424 -57.49765311 10.25334569 -50.375 3.25 C-35.78579844 -8.32976984 -15.91883167 -11.24766871 0 0 Z " fill="#070707" transform="translate(158.375,811.75)"/>
<path d="M0 0 C0.66 0.33 1.32 0.66 2 1 C-142.045 145.045 -142.045 145.045 -289 292 C-289.66 291.67 -290.32 291.34 -291 291 C-290.12786865 290.13310547 -289.2557373 289.26621094 -288.35717773 288.37304688 C-285.09122598 285.12533208 -281.82869701 281.87419673 -278.56713867 278.62207031 C-277.16082925 277.22075867 -275.75361978 275.82034964 -274.34545898 274.42089844 C-272.30990344 272.39760962 -270.27771469 270.37098872 -268.24609375 268.34375 C-267.62600937 267.7288269 -267.00592499 267.11390381 -266.36705017 266.48034668 C-263.39890297 263.51257307 -260.53905425 260.50352998 -257.8114996 257.31234074 C-253.87923688 252.79929345 -249.70486668 248.56557352 -245.46742249 244.34043884 C-244.63404136 243.50549772 -243.80066023 242.6705566 -242.94202513 241.81031424 C-240.64916332 239.51417426 -238.35409971 237.22026293 -236.05804312 234.92731845 C-233.5742526 232.44580274 -231.09335653 229.96139603 -228.61207581 227.47737122 C-223.75900103 222.61986196 -218.90324144 217.76504528 -214.04649717 212.91120522 C-210.09752493 208.96449615 -206.14953565 205.0168063 -202.20223808 201.06842232 C-201.35786486 200.22381925 -201.35786486 200.22381925 -200.4964336 199.36215349 C-199.35269996 198.21810011 -198.20896855 197.07404449 -197.06523936 195.92998666 C-186.35347769 185.215377 -175.6386594 174.50382825 -164.92278468 163.79333235 C-155.7385343 154.61354938 -146.55690885 145.43114781 -137.37719727 136.24682617 C-126.70365807 125.56792919 -116.02849046 114.89066439 -105.35073847 104.21597964 C-104.21101612 103.07657582 -103.07129585 101.93716992 -101.93157768 100.79776192 C-101.3708898 100.23722831 -100.81020192 99.6766947 -100.23252349 99.09917523 C-96.29137722 95.15889049 -92.35138863 91.21745046 -88.41185188 87.27555656 C-83.60744606 82.46833917 -78.80124832 77.66292185 -73.99278123 72.85976665 C-71.54194102 70.41154515 -69.09188969 67.96254835 -66.64402008 65.51135635 C-63.98484373 62.84943998 -61.3225941 60.19063489 -58.65956116 57.53257751 C-57.51104733 56.38071761 -57.51104733 56.38071761 -56.33933121 55.2055878 C-52.25147089 51.13248759 -48.07575436 47.22669608 -43.69522232 43.46919298 C-41.44708453 41.52080649 -39.33628743 39.45621514 -37.23632812 37.34985352 C-36.39606079 36.50951065 -35.55579346 35.66916779 -34.69006348 34.80335999 C-33.37395081 33.47950539 -33.37395081 33.47950539 -32.03125 32.12890625 C-31.11033569 31.206577 -30.18942139 30.28424774 -29.24060059 29.33396912 C-26.81852446 26.90811523 -24.39946921 24.47927148 -21.9810791 22.04974365 C-19.50226163 19.56060884 -17.02053203 17.07438105 -14.5390625 14.58789062 C-9.68989076 9.72806542 -4.84391137 4.86506822 0 0 Z " fill="#676767" transform="translate(608,0)"/>
<path d="M0 0 C0.66 0.33 1.32 0.66 2 1 C-4.93 7.93 -11.86 14.86 -19 22 C-19.66 21.67 -20.32 21.34 -21 21 C-14.35150847 13.52992682 -7.59684563 6.52570688 0 0 Z " fill="#676767" transform="translate(94,686)"/>
<path d="M0 0 C0.66 0.33 1.32 0.66 2 1 C-3.61 6.61 -9.22 12.22 -15 18 C-15.66 17.67 -16.32 17.34 -17 17 C-15.29657414 15.09955869 -13.58752883 13.20471126 -11.875 11.3125 C-11.400625 10.78205078 -10.92625 10.25160156 -10.4375 9.70507812 C-7.18500869 6.12294242 -3.77952775 3.02250068 0 0 Z " fill="#656565" transform="translate(376,672)"/>
<path d="M0 0 C0.66 0.33 1.32 0.66 2 1 C-1.63 4.63 -5.26 8.26 -9 12 C-9 8.47601214 -8.44884893 7.98495633 -6.1875 5.4375 C-5.40439453 4.53837891 -5.40439453 4.53837891 -4.60546875 3.62109375 C-3 2 -3 2 0 0 Z " fill="#6C6C6C" transform="translate(112,812)"/>
</svg>
