<?xml version="1.0" encoding="UTF-8"?>
<svg version="1.1" xmlns="http://www.w3.org/2000/svg" width="512" height="512">
<path d="M0 0 C9.68809746 4.28512003 15.58846335 16.79118325 21 25.375 C21.67289063 26.43460938 22.34578125 27.49421875 23.0390625 28.5859375 C24.37299653 30.68726988 25.70507226 32.78978323 27.03515625 34.89355469 C30.01335099 39.60212201 33.0068238 44.3009472 36 49 C37.2375 48.855625 38.475 48.71125 39.75 48.5625 C40.44609375 48.48128906 41.1421875 48.40007812 41.859375 48.31640625 C43.97502978 48.0449694 43.97502978 48.0449694 45.89624023 47.49511719 C59.18808347 44.36689877 74.96200688 47.21798548 86.56762695 53.99267578 C93.49690588 58.33388822 99.0120981 63.4847534 104 70 C104.48855469 70.62132812 104.97710937 71.24265625 105.48046875 71.8828125 C114.26792305 84.37451677 115.50338533 99.24633675 114 114 C111.97525 125.23227235 106.54350853 134.56901988 99 143 C100.53583123 147.30682832 102.74639926 151.03583656 105.1875 154.875 C105.82377319 155.88820313 105.82377319 155.88820313 106.47290039 156.921875 C109.22454289 161.27876342 112.04251553 165.58841914 114.890625 169.8828125 C115.55940674 170.8948877 116.22818848 171.90696289 116.91723633 172.94970703 C118.24054215 174.94769893 119.57086429 176.94106561 120.90893555 178.92919922 C129.48040302 191.86984147 129.48040302 191.86984147 128.9375 199.125 C127.59570278 204.67109518 125.81634963 207.77070616 121.05882263 210.99057007 C116.21843529 213.64516288 111.03362306 214.70033049 105.68383789 215.90087891 C104.56425186 216.16159683 103.44466583 216.42231476 102.29115295 216.69093323 C98.60402608 217.54679674 94.9134592 218.38670672 91.22265625 219.2265625 C88.65084535 219.82039746 86.07926949 220.41525114 83.50791931 221.01107788 C77.43526408 222.41647792 71.36006102 223.81051473 65.28382057 225.20032251 C57.71889028 226.9312017 50.1572828 228.67642742 42.59570312 230.421875 C34.86901326 232.20509924 27.14201178 233.98691174 19.41285706 235.75942993 C18.23498627 236.02971512 17.05711548 236.30000031 15.84355164 236.57847595 C13.65555759 237.08035939 11.46742255 237.58162871 9.27911377 238.08213806 C3.83699653 239.33080875 -1.58849025 240.6245414 -7 242 C-5.47707182 246.33527227 -3.20348533 249.98793957 -0.66796875 253.78515625 C-0.02540382 254.75935516 -0.02540382 254.75935516 0.63014221 255.75323486 C2.02023455 257.85901659 3.41639268 259.96070251 4.8125 262.0625 C5.77150968 263.51357672 6.73000347 264.96499451 7.68798828 266.41674805 C9.58587757 269.29251543 11.48544693 272.16716056 13.38623047 275.04101562 C17.761934 281.66226838 22.08710431 288.31603771 26.390625 294.984375 C27.97455404 297.43683655 29.58521612 299.85531587 31.234375 302.265625 C36.80701429 310.50944676 39.95581746 318.96391667 39 329 C36.960255 339.43669527 31.99004849 347.34011118 23.34765625 353.55859375 C15.54261532 358.35070707 7.3412203 359.14084923 -1.60546875 357.53125 C-18.92163935 353.02099161 -26.20224417 338.02278656 -35.05053711 323.86987305 C-46.64125105 305.33091829 -58.82905499 287.16130914 -71 269 C-71.62003906 269.42410156 -72.24007812 269.84820312 -72.87890625 270.28515625 C-78.32717953 273.89354685 -83.83945551 277.04597217 -89.75 279.8125 C-90.66954468 280.24671265 -90.66954468 280.24671265 -91.60766602 280.68969727 C-106.70851833 287.59695026 -124.20423543 287.82136018 -140 283 C-158.13820087 276.15104886 -172.56412631 263.55689449 -181 246 C-182.56946132 241.71965095 -183.86006862 237.4126376 -185 233 C-185.1750708 232.37391846 -185.3501416 231.74783691 -185.53051758 231.1027832 C-189.08129228 215.19907936 -185.39034956 196.71542474 -177 183 C-167.86360909 168.67201335 -155.82295375 160.64700427 -141.74023438 151.74658203 C-138.91914301 149.94846304 -136.12130916 148.1184808 -133.328125 146.27734375 C-132.41466309 145.67631836 -131.50120117 145.07529297 -130.56005859 144.45605469 C-128.79566749 143.29391165 -127.03291824 142.12927135 -125.27197266 140.96191406 C-124.47839355 140.44209961 -123.68481445 139.92228516 -122.8671875 139.38671875 C-122.16706543 138.92483154 -121.46694336 138.46294434 -120.74560547 137.98706055 C-119 137 -119 137 -117 137 C-116.73445313 136.42886475 -116.46890625 135.85772949 -116.1953125 135.26928711 C-114.93681379 132.8800417 -113.50167226 130.84603769 -111.875 128.69140625 C-110.94699585 127.45789429 -110.94699585 127.45789429 -110.00024414 126.19946289 C-109.34016357 125.32926514 -108.68008301 124.45906738 -108 123.5625 C-107.3186499 122.65943115 -106.6372998 121.7563623 -105.93530273 120.82592773 C-101.55959223 115.03425698 -97.15237468 109.2678619 -92.71484375 103.5234375 C-83.83972199 92.02433702 -75.06440463 80.44775538 -66.36547852 68.81494141 C-60.63734963 61.16387394 -54.81587331 53.58443296 -49 46 C-40.10998965 34.41009089 -40.10998965 34.41009089 -31.3125 22.75 C-30.61125 21.81671875 -29.91 20.8834375 -29.1875 19.921875 C-28.0355265 18.38316754 -26.88485909 16.84342989 -25.74609375 15.29492188 C-24.44331733 13.52353483 -23.12865179 11.76146258 -21.8125 10 C-21.03519531 8.948125 -20.25789062 7.89625 -19.45703125 6.8125 C-13.65386793 0.16976933 -8.50121097 -1.20900455 0 0 Z M-7 14 C-8.96363424 16.57934246 -10.9199511 19.16414585 -12.875 21.75 C-13.43058594 22.47960937 -13.98617187 23.20921875 -14.55859375 23.9609375 C-15.09355469 24.66992188 -15.62851563 25.37890625 -16.1796875 26.109375 C-16.67194824 26.75874023 -17.16420898 27.40810547 -17.67138672 28.07714844 C-18.1098291 28.71168945 -18.54827148 29.34623047 -19 30 C-19.44384033 30.64074463 -19.88768066 31.28148926 -20.3449707 31.94165039 C-21.26683871 34.06479005 -21.26683871 34.06479005 -20.0246582 36.2956543 C-19.45577881 37.13008057 -18.88689941 37.96450684 -18.30078125 38.82421875 C-17.36081299 40.23030396 -17.36081299 40.23030396 -16.40185547 41.66479492 C-15.71236816 42.6622876 -15.02288086 43.65978027 -14.3125 44.6875 C-12.90462097 46.78103017 -11.49707096 48.87478164 -10.08984375 50.96875 C-9.38972168 51.99871094 -8.68959961 53.02867187 -7.96826172 54.08984375 C-5.3785225 57.91888015 -2.87019627 61.79650177 -0.375 65.6875 C0.5072403 67.05375508 1.39005747 68.41963781 2.2734375 69.78515625 C2.71526367 70.46852051 3.15708984 71.15188477 3.61230469 71.85595703 C11.51454382 84.06522235 19.4619535 96.24521474 27.40869141 108.42553711 C33.08186264 117.12230553 38.74195973 125.82752422 44.3984375 134.53515625 C46.0358087 137.05511046 47.67403178 139.57450895 49.3125 142.09375 C54.38310623 149.89060891 59.44977645 157.68992042 64.5 165.5 C65.84821314 167.58355704 67.19655037 169.66703373 68.54492188 171.75048828 C69.57284594 173.33963129 70.60012794 174.9291897 71.62695312 176.51904297 C80.57195123 190.42263512 80.57195123 190.42263512 90 204 C96.06324531 202.96718266 102.10561127 201.82623907 108.125 200.5625 C109.22070312 200.33691406 110.31640625 200.11132812 111.4453125 199.87890625 C112.28835938 199.58886719 113.13140625 199.29882812 114 199 C114.33 198.01 114.66 197.02 115 196 C113.55235702 193.1597537 113.55235702 193.1597537 111.3984375 190.06640625 C111.01066132 189.48137833 110.62288513 188.8963504 110.22335815 188.29359436 C108.94992403 186.37680922 107.66248263 184.46987069 106.375 182.5625 C105.49077235 181.23624014 104.60764021 179.90924926 103.72558594 178.58154297 C101.96482086 175.93287071 100.19959437 173.28726837 98.43066406 170.64404297 C95.32659323 165.99937198 92.28296295 161.31632606 89.25 156.625 C88.22429858 155.04405003 87.19825558 153.46332163 86.171875 151.8828125 C85.66076172 151.09551758 85.14964844 150.30822266 84.62304688 149.49707031 C81.58793741 144.82753066 78.54344183 140.16411132 75.5 135.5 C69.18704271 125.82405792 62.88649692 116.14012125 56.59277344 106.45166016 C54.4387053 103.13603289 52.28383122 99.8209298 50.12890625 96.50585938 C48.50511701 94.00787185 46.88146455 91.50979545 45.2578125 89.01171875 C43.06558485 85.63901012 40.87282092 82.26665096 38.6796875 78.89453125 C33.61182122 71.1014916 28.54748391 63.30625996 23.5 55.5 C18.35296175 47.54179252 13.2049924 39.58422954 8.0234375 31.6484375 C6.17283653 28.81300703 4.34207257 25.96746278 2.5390625 23.1015625 C1.49878906 21.47347656 1.49878906 21.47347656 0.4375 19.8125 C-0.14128906 18.89082031 -0.72007812 17.96914062 -1.31640625 17.01953125 C-3.23903665 14.71326694 -4.15133391 14.56195178 -7 14 Z M-31 46 C-32.46114316 47.51140578 -32.46114316 47.51140578 -33.94140625 49.515625 C-34.52003418 50.26561768 -35.09866211 51.01561035 -35.69482422 51.78833008 C-36.61932373 53.00685669 -36.61932373 53.00685669 -37.5625 54.25 C-38.19945801 55.07975342 -38.83641602 55.90950684 -39.49267578 56.7644043 C-43.52687831 62.02994407 -47.52203067 67.3247171 -51.484375 72.64453125 C-54.82951357 77.12292656 -58.23262911 81.55736073 -61.625 86 C-67.71280404 93.97556736 -73.75150839 101.98617146 -79.76049805 110.02124023 C-83.28491481 114.72908588 -86.83719729 119.41246197 -90.4375 124.0625 C-94.74129431 129.62787556 -98.89890704 135.2836721 -103 141 C-102.63390625 141.57363281 -102.2678125 142.14726562 -101.890625 142.73828125 C-99.06820925 147.16678596 -96.24982987 151.59718156 -93.4609375 156.046875 C-85.57941252 168.60740189 -77.48583196 181.02450119 -69.34863281 193.42041016 C-66.86197675 197.2091321 -64.38002997 201.00092897 -61.8984375 204.79296875 C-60.61879087 206.74793521 -59.3390877 208.70286465 -58.05935669 210.65777588 C-57.2398629 211.90965157 -56.4204236 213.16156294 -55.6010437 214.41351318 C-51.09638144 221.29519324 -46.57530788 228.16501924 -42 235 C-34.72567569 233.73741556 -27.53090368 232.27250688 -20.34375 230.58569336 C-19.34234482 230.35292191 -18.34093964 230.12015045 -17.30918884 229.88032532 C-14.03884644 229.11943488 -10.7694092 228.35473316 -7.5 227.58984375 C-5.2136679 227.05681949 -2.92729021 226.52399077 -0.64086914 225.99134827 C4.13027205 224.8792747 8.90098988 223.76540866 13.67138672 222.65014648 C19.79191299 221.21930909 25.91328214 219.79211738 32.03494263 218.36614132 C36.74654413 217.26836134 41.45780199 216.16911283 46.16894531 215.06936836 C48.42716249 214.54232114 50.68546302 214.01563091 52.94384766 213.48930168 C56.08920331 212.75593495 59.23411612 212.02069956 62.37890625 211.28491211 C63.313965 211.06723175 64.24902374 210.84955139 65.2124176 210.62527466 C66.0673027 210.42485062 66.92218781 210.22442657 67.80297852 210.01792908 C68.54548355 209.84446425 69.28798859 209.67099943 70.05299377 209.4922781 C71.72284002 209.07007671 73.36599374 208.54466875 75 208 C73.67691649 204.41377875 72.08572507 201.37015891 69.98046875 198.18359375 C69.3771875 197.26513672 68.77390625 196.34667969 68.15234375 195.40039062 C67.50394531 194.42263672 66.85554687 193.44488281 66.1875 192.4375 C64.81621555 190.35299002 63.44512507 188.26835243 62.07421875 186.18359375 C61.38634277 185.14058105 60.6984668 184.09756836 59.98974609 183.02294922 C57.14062558 178.69438354 54.31941874 174.3479449 51.5 170 C46.80115147 162.76463064 42.090117 155.53727605 37.375 148.3125 C32.63356214 141.04677437 27.90596271 133.77247116 23.19824219 126.48486328 C18.7164647 119.55175409 14.20370445 112.63892979 9.69189453 105.7253418 C3.99011547 96.98767252 -1.69733226 88.24075915 -7.38085938 79.49121094 C-9.0703528 76.89175513 -10.76155606 74.29341811 -12.453125 71.6953125 C-13.02232666 70.82060303 -13.59152832 69.94589355 -14.17797852 69.04467773 C-15.29227876 67.33274962 -16.40732665 65.62130787 -17.52319336 63.91040039 C-19.81383336 60.39261919 -22.09451069 56.87222505 -24.30078125 53.30078125 C-25.23470703 51.79064453 -25.23470703 51.79064453 -26.1875 50.25 C-26.69667969 49.40953125 -27.20585937 48.5690625 -27.73046875 47.703125 C-28.14941406 47.14109375 -28.56835938 46.5790625 -29 46 C-29.66 46 -30.32 46 -31 46 Z M45 63 C49.02802664 70.16241822 53.30154871 77.06834441 57.89086914 83.87841797 C61.41816336 89.11407153 64.87724516 94.39103261 68.3125 99.6875 C68.85189209 100.51813965 69.39128418 101.3487793 69.94702148 102.20458984 C72.85369263 106.68318806 75.75334113 111.16625543 78.6484375 115.65234375 C79.53728638 117.02676636 79.53728638 117.02676636 80.4440918 118.42895508 C81.58569337 120.19435295 82.72525881 121.96106955 83.86254883 123.72924805 C84.63248169 124.91901245 84.63248169 124.91901245 85.41796875 126.1328125 C85.86938232 126.83293457 86.3207959 127.53305664 86.78588867 128.25439453 C88.01858075 130.13641326 88.01858075 130.13641326 90 132 C98.1371341 122.53380067 101.65966061 111.7545559 100.81640625 99.28515625 C99.32396207 88.56109862 94.13386499 78.21627793 86 71 C74.65515604 62.46124036 58.8364605 56.26947367 45 63 Z M-121.1875 155.4375 C-122.26584106 156.11594971 -122.26584106 156.11594971 -123.3659668 156.80810547 C-125.57904028 158.20268493 -127.78959104 159.60120225 -130 161 C-130.64356445 161.40524902 -131.28712891 161.81049805 -131.95019531 162.22802734 C-149.62055882 173.36232702 -165.55261007 184.11866562 -171.4375 205.3125 C-173.96252858 220.54778481 -172.01005577 236.15147659 -163 249 C-153.30584889 261.44467414 -140.81716108 269.87723861 -125 272 C-109.58340646 273.48974403 -96.71481258 268.77770797 -84.13085938 260.41259766 C-81.72277234 258.81621915 -79.29261444 257.25697613 -76.859375 255.69921875 C-69.46240933 250.946232 -62.11698776 246.16555563 -55 241 C-58.69842702 233.91812504 -63.0263568 227.30859091 -67.49716187 220.69836426 C-69.52792845 217.69425627 -71.54589369 214.68159452 -73.5625 211.66796875 C-73.956082 211.07988434 -74.349664 210.49179993 -74.75517273 209.88589478 C-77.64630746 205.55507559 -80.45837004 201.18431468 -83.1875 196.75 C-89.58164784 186.36493031 -96.30435587 176.19221748 -103 166 C-103.53850586 165.17790039 -104.07701172 164.35580078 -104.63183594 163.50878906 C-106.04221403 161.35734946 -107.45739468 159.20918206 -108.875 157.0625 C-109.49084961 156.12265259 -109.49084961 156.12265259 -110.11914062 155.16381836 C-111.05280929 153.75783513 -112.02209672 152.37558394 -113 151 C-115.63897208 151 -118.92495973 154.0093219 -121.1875 155.4375 Z M-59 260 C-54.93025636 267.23659714 -50.60501256 274.208352 -45.96850586 281.08935547 C-42.82383656 285.75677469 -39.7374216 290.45763967 -36.6875 295.1875 C-35.76693557 296.6145888 -34.84636247 298.04167202 -33.92578125 299.46875 C-33.21736084 300.56703125 -33.21736084 300.56703125 -32.49462891 301.6875 C-29.24957785 306.70826505 -25.98631672 311.71727397 -22.72021484 316.72436523 C-20.20043183 320.59200089 -17.69625123 324.46671696 -15.24609375 328.37890625 C-14.83117676 329.03802002 -14.41625977 329.69713379 -13.98876953 330.3762207 C-12.88935083 332.12757781 -11.7978873 333.88392176 -10.70703125 335.640625 C-10.14371094 336.41921875 -9.58039063 337.1978125 -9 338 C-8.34 338 -7.68 338 -7 338 C-7 338.66 -7 339.32 -7 340 C-0.91197198 343.60772031 3.90591737 345.13598055 11 344 C17.37473203 341.80096453 21.4759265 337.11742307 24.375 331.1875 C26.63573228 319.65776535 20.06826005 311.37748566 14 302.1875 C12.64037556 300.11604912 11.2810023 298.04443335 9.921875 295.97265625 C9.25349609 294.95574707 8.58511719 293.93883789 7.89648438 292.89111328 C5.33083564 288.97988616 2.78722364 285.05470507 0.25 281.125 C-0.62499648 279.77083106 -1.49999645 278.41666438 -2.375 277.0625 C-2.80296875 276.39992188 -3.2309375 275.73734375 -3.671875 275.0546875 C-5.07135471 272.88961006 -6.47293377 270.72590327 -7.875 268.5625 C-8.35243652 267.82555908 -8.82987305 267.08861816 -9.32177734 266.3293457 C-10.25929248 264.88236721 -11.1971082 263.43558342 -12.13525391 261.98901367 C-14.17896456 258.83342622 -16.21317038 255.67319361 -18.2109375 252.48828125 C-18.84257812 251.48152344 -19.47421875 250.47476563 -20.125 249.4375 C-20.66382813 248.56996094 -21.20265625 247.70242188 -21.7578125 246.80859375 C-22.16773438 246.21175781 -22.57765625 245.61492187 -23 245 C-36.44708515 245 -48.78678775 252.03059954 -59 260 Z " fill="#221E1F" transform="translate(235,111)"/>
<path d="M0 0 C5.19133966 2.83163981 8.97656732 1.30059915 14.375 -0.1875 C15.385625 -0.496875 16.39625 -0.80625 17.4375 -1.125 C15.93510034 2.49441735 14.61604707 5.6071794 12.4375 8.875 C14.7475 8.215 17.0575 7.555 19.4375 6.875 C18.36863152 10.50915283 17.36831996 11.93539671 14.453125 14.48046875 C10.61919061 18.22572397 10.30581371 21.89525661 9.8125 27.0625 C7.7566822 43.15130859 2.06049239 56.21603884 -10.5625 66.875 C-23.70372434 76.56368593 -39.40445595 79.45058326 -55.390625 77.37890625 C-62.97989809 76.01928951 -70.09387237 74.2305426 -76.5625 69.875 C-76.8925 69.215 -77.2225 68.555 -77.5625 67.875 C-76.36753906 67.69324219 -75.17257812 67.51148438 -73.94140625 67.32421875 C-65.89912364 66.06491993 -58.18607102 64.83972206 -50.5625 61.875 C-50.5625 61.215 -50.5625 60.555 -50.5625 59.875 C-51.42875 59.7925 -52.295 59.71 -53.1875 59.625 C-58.71068727 58.39762505 -62.12288234 55.73173656 -65.4375 51.25 C-67.5625 47.875 -67.5625 47.875 -67.5625 45.875 C-65.5825 45.38 -65.5825 45.38 -63.5625 44.875 C-64.10519531 44.43929687 -64.64789063 44.00359375 -65.20703125 43.5546875 C-69.41100245 40.05516552 -72.78453254 37.20890239 -74.5625 31.875 C-74.75 28 -74.75 28 -74.5625 24.875 C-73.2425 24.875 -71.9225 24.875 -70.5625 24.875 C-71.2225 23.781875 -71.8825 22.68875 -72.5625 21.5625 C-75.13543452 16.41663096 -75.33077115 11.52664981 -74.5625 5.875 C-73.0625 2.6875 -73.0625 2.6875 -71.5625 0.875 C-70.61375 1.720625 -69.665 2.56625 -68.6875 3.4375 C-57.53897582 12.8914485 -46.13129724 18.67159274 -31.5625 20.875 C-31.55992187 20.25753906 -31.55734375 19.64007813 -31.5546875 19.00390625 C-31.23357817 11.97161185 -29.4484774 7.03476062 -24.5625 1.875 C-17.17952186 -3.34499626 -7.87870646 -5.11673296 0 0 Z " fill="#221E1F" transform="translate(447.5625,242.125)"/>
<path d="M0 0 C0 5.28 0 10.56 0 16 C-3.54817708 16.42317708 -7.09635417 16.84635417 -10.64453125 17.26953125 C-13.85547194 17.79871946 -13.85547194 17.79871946 -15.90625 19.0625 C-17.69530649 22.23168579 -17.5780497 25.63514716 -17.6875 29.1875 C-17.790625 31.765625 -17.89375 34.34375 -18 37 C-12.39 37 -6.78 37 -1 37 C-1.309375 39.578125 -1.61875 42.15625 -1.9375 44.8125 C-2.03281006 45.62050049 -2.12812012 46.42850098 -2.22631836 47.26098633 C-2.60000803 50.30978917 -3.02617181 53.07851544 -4 56 C-8.62 56 -13.24 56 -18 56 C-18 70.85 -18 85.7 -18 101 C-24.93 101 -31.86 101 -39 101 C-39 86.15 -39 71.3 -39 56 C-44.28 56 -49.56 56 -55 56 C-55 49.73 -55 43.46 -55 37 C-49.72 37 -44.44 37 -39 37 C-39.03480469 35.73285156 -39.06960938 34.46570313 -39.10546875 33.16015625 C-39.13363237 31.46095089 -39.16092975 29.76173102 -39.1875 28.0625 C-39.22520508 26.81629883 -39.22520508 26.81629883 -39.26367188 25.54492188 C-39.34778358 18.33935235 -38.35822462 11.86811103 -33.6875 6.1875 C-23.23205935 -2.32274239 -12.93611045 -1.99017084 0 0 Z " fill="#221E1F" transform="translate(399,44)"/>
<path d="M0 0 C9.68305787 7.82314378 15.27112935 19.08662826 16.8125 31.3125 C17.60197742 43.94413875 13.80957012 55.44635604 6.11328125 65.453125 C-2.58053426 74.69361045 -13.53469922 79.91298433 -26.15185547 80.39990234 C-32.30572588 80.50397615 -37.20132108 80.21520068 -42.9375 77.75 C-50.48864187 74.74836881 -57.42858999 77.3935529 -64.92822266 79.47802734 C-67.93363878 80.23522504 -70.92464535 80.63030743 -74 81 C-73.47470204 74.43377554 -71.74653604 68.53830409 -69.7421875 62.26953125 C-68.66999237 57.54622954 -69.78703594 54.385188 -71.5 50 C-75.47883902 38.22028446 -74.51946757 26.27363386 -69.18359375 15.15234375 C-63.07366565 4.04155041 -53.95689388 -3.77885413 -42 -8 C-27.24316427 -11.90695314 -12.23009335 -8.74461986 0 0 Z M-55.72265625 11.953125 C-63.19771875 21.57703838 -64.97337227 29.90969177 -64 42 C-63.19131298 44.99949367 -62.19825476 47.74671204 -60.97265625 50.59765625 C-59.11647526 55.18219967 -58.84447846 58.49034615 -59.9375 63.3125 C-60.22947266 64.63701172 -60.22947266 64.63701172 -60.52734375 65.98828125 C-60.68332031 66.65214844 -60.83929688 67.31601563 -61 68 C-60.16597656 67.80921875 -59.33195312 67.6184375 -58.47265625 67.421875 C-51.64521692 66.07672086 -47.07232542 65.48715672 -40.90234375 68.95703125 C-34.22702087 72.61680786 -25.00646497 71.77678606 -17.875 69.9375 C-7.99091128 66.51059284 -0.94557799 60.14931927 4 51 C8.43228321 40.96404445 8.09491855 31.04817176 4.3203125 20.859375 C-0.1020457 11.2819602 -7.4674708 5.02022506 -17.1875 1.125 C-31.4220896 -3.03090291 -45.92565133 0.84540967 -55.72265625 11.953125 Z " fill="#221E1F" transform="translate(456,141)"/>
<path d="M0 0 C0.75222839 -0.00570007 1.50445679 -0.01140015 2.27947998 -0.01727295 C3.86973677 -0.02670224 5.46001291 -0.03324869 7.05029297 -0.03710938 C9.46226872 -0.04678631 11.87338128 -0.0778163 14.28515625 -0.109375 C15.83593248 -0.11590889 17.38671476 -0.12115784 18.9375 -0.125 C20.00511566 -0.1435202 20.00511566 -0.1435202 21.09429932 -0.16241455 C27.977338 -0.13235585 34.76029445 1.91262943 40.234375 6.203125 C45.11488968 12.79804144 46.40206525 18.00114861 46.47265625 26.18359375 C46.480728 27.07041336 46.48879974 27.95723297 46.49711609 28.8709259 C46.51094681 30.74962414 46.52167349 32.6283474 46.52954102 34.50708008 C46.54670675 37.36263549 46.59059578 40.21701856 46.63476562 43.07226562 C46.64489733 44.90103319 46.65341194 46.72981056 46.66015625 48.55859375 C46.67766434 49.40471725 46.69517242 50.25084076 46.71321106 51.12260437 C46.68885312 57.87126173 44.90817125 63.04096414 40.5234375 68.2265625 C39.97429687 68.67257813 39.42515625 69.11859375 38.859375 69.578125 C38.31539063 70.03960937 37.77140625 70.50109375 37.2109375 70.9765625 C31.78337714 74.34465332 26.36150715 74.52226098 20.1796875 74.5390625 C19.31930878 74.5457193 18.45893005 74.5523761 17.57247925 74.55923462 C15.75879034 74.56932403 13.94506459 74.57405279 12.13134766 74.57373047 C9.37469567 74.57810071 6.61965019 74.61445044 3.86328125 74.65234375 C2.09375542 74.65821352 0.32422206 74.66218184 -1.4453125 74.6640625 C-2.26015106 74.67843353 -3.07498962 74.69280457 -3.91452026 74.70761108 C-10.54076618 74.65539554 -15.73835927 72.81545662 -20.7890625 68.45703125 C-21.23507812 67.89886719 -21.68109375 67.34070313 -22.140625 66.765625 C-22.60210937 66.21003906 -23.06359375 65.65445313 -23.5390625 65.08203125 C-26.68716024 60.25962676 -27.12787025 55.61625025 -27.28515625 49.97265625 C-27.31163742 49.18219406 -27.33811859 48.39173187 -27.36540222 47.57731628 C-27.41794345 45.90740197 -27.46555446 44.23732615 -27.50854492 42.56713867 C-27.57744652 40.04050513 -27.67359459 37.51588943 -27.77148438 34.99023438 C-28.38897351 15.79523856 -28.38897351 15.79523856 -22.578125 7.828125 C-15.88697575 1.58305236 -8.94024519 0.05278244 0 0 Z M-17.078125 14.703125 C-21.06406728 20.60822467 -19.98756409 27.8735249 -20.00585938 34.73730469 C-20.01553203 36.93203107 -20.04656357 39.12580689 -20.078125 41.3203125 C-20.27493264 51.6622697 -20.27493264 51.6622697 -16.765625 61.203125 C-12.710482 65.21443027 -8.99352917 66.77545978 -3.33274841 66.84655762 C-2.55649612 66.83016235 -1.78024384 66.81376709 -0.98046875 66.796875 C0.2485038 66.79693542 0.2485038 66.79693542 1.50230408 66.79699707 C3.22435226 66.79166416 4.94640167 66.77417729 6.66821289 66.74511719 C9.29324217 66.70318303 11.91570693 66.70406175 14.54101562 66.7109375 C16.22137186 66.70044572 17.90171498 66.68750768 19.58203125 66.671875 C20.36030777 66.67167358 21.13858429 66.67147217 21.94044495 66.67126465 C26.74108397 66.5677228 30.07433211 65.83996419 34.234375 63.203125 C40.11608469 55.89072917 39.44874292 48.46353464 39.47460938 39.44799805 C39.48429741 37.40697183 39.51535321 35.36696162 39.546875 33.32617188 C39.84354229 22.19690222 39.84354229 22.19690222 34.78198242 12.66113281 C29.86714819 8.4013614 26.43675508 8.02430871 20.15625 7.96484375 C18.94995941 7.95273613 18.94995941 7.95273613 17.71929932 7.94038391 C16.0145483 7.92654202 14.30976955 7.91582033 12.60498047 7.90795898 C10.00824756 7.8907829 7.41280024 7.84690416 4.81640625 7.80273438 C3.15886352 7.79260395 1.50130997 7.78408894 -0.15625 7.77734375 C-0.92833801 7.75983566 -1.70042603 7.74232758 -2.49591064 7.72428894 C-8.96167064 7.75006502 -12.64102691 9.9062622 -17.078125 14.703125 Z " fill="#221E1F" transform="translate(283.765625,64.796875)"/>
<path d="M0 0 C4.05523038 2.85709413 7.51585617 6.46921234 9.75 10.9375 C10.52286707 17.20848474 10.56203268 22.5438228 7.125 28 C3.60900241 32.49266358 0.76612124 34.56687493 -5.015625 35.27734375 C-11.03723384 35.58750199 -15.70448148 35.2026044 -20.625 31.54296875 C-24.89832195 27.32100884 -26.4608793 22.82004448 -26.75 16.875 C-26.48861238 10.79773793 -24.19769461 7.26216776 -20.3125 2.625 C-14.46055469 -2.16295526 -7.00734183 -2.29086175 0 0 Z M-16.25 8.9375 C-18.4479747 11.64833547 -19.17397877 13.42707172 -19.6875 16.875 C-19.1306713 20.77280088 -17.68417323 22.87739651 -15.25 25.9375 C-11.5612362 28.39667586 -8.5315571 28.75341937 -4.25 27.9375 C-1.2279206 26.19299494 1.16651082 24.10447836 2.75 20.9375 C3.1244411 15.97615547 2.98898133 12.82427759 -0.25 8.9375 C-6.28234374 5.21541557 -10.21765626 5.21541557 -16.25 8.9375 Z " fill="#221E1F" transform="translate(301.25,85.0625)"/>
<path d="M0 0 C3.18399871 1.32019459 4.29937104 3.11738593 5.83984375 6.1484375 C6.88372028 8.91329966 6.96853401 11.1525896 6.5625 14.0625 C5.9025 14.7225 5.2425 15.3825 4.5625 16.0625 C4.8324111 19.976211 6.89403241 22.32894783 9.5625 25.0625 C12.81078148 27.21952208 16.15447267 29.16987413 19.5625 31.0625 C19.84609375 30.258125 20.1296875 29.45375 20.421875 28.625 C21.5625 26.0625 21.5625 26.0625 23.8125 25.0625 C28.14275999 25.0625 30.99676862 27.00184326 34.5 29.375 C35.5625 31.0625 35.5625 31.0625 35.625 34 C34.5625 37.0625 34.5625 37.0625 32 39.4375 C27.00543808 41.79856563 23.29216982 41.83619622 18.109375 40.3671875 C7.35960922 36.44319324 -1.27559016 29.08249656 -6.875 19.0625 C-8.79318231 14.85407416 -8.96456395 11.65548584 -8.4375 7.0625 C-6.61943456 3.08007094 -4.73658897 0.121451 0 0 Z " fill="#221E1F" transform="translate(413.4375,155.9375)"/>
<path d="M0 0 C2.97 0.495 2.97 0.495 6 1 C7.32841008 6.43440487 7.32841008 6.43440487 5.875 8.9375 C4 10 4 10 1.4375 10 C-1 9 -1 9 -2.5 6.6875 C-3 4 -3 4 -1.625 1.6875 C-0.820625 0.8521875 -0.820625 0.8521875 0 0 Z " fill="#201C1E" transform="translate(272,78)"/>
</svg>
